<?xml version="1.0" encoding="UTF-8" standalone="no"?>
<!DOCTYPE svg PUBLIC "-//W3C//DTD SVG 1.1//EN"
 "http://www.w3.org/Graphics/SVG/1.1/DTD/svg11.dtd">
<!-- Generated by graphviz version 3.0.0 (20220226.1711)
 -->
<!-- Title: dependencies Pages: 1 -->
<svg width="493pt" height="174pt"
 viewBox="0.00 0.00 493.00 173.80" xmlns="http://www.w3.org/2000/svg" xmlns:xlink="http://www.w3.org/1999/xlink">
<g id="graph0" class="graph" transform="scale(1 1) rotate(0) translate(4 169.8)">
<title>dependencies</title>
<polygon fill="white" stroke="transparent" points="-4,4 -4,-169.8 489,-169.8 489,4 -4,4"/>
<text text-anchor="middle" x="242.5" y="-8.2" font-family="sans-serif" font-size="14.00">dependencies</text>
<g id="clust1" class="cluster">
<title>cluster_AppModule</title>
<polygon fill="none" stroke="black" stroke-dasharray="1,5" points="8,-32.8 8,-157.8 477,-157.8 477,-32.8 8,-32.8"/>
</g>
<g id="clust3" class="cluster">
<title>cluster_AppModule_imports</title>
<polygon fill="none" stroke="black" points="154,-40.8 154,-92.8 469,-92.8 469,-40.8 154,-40.8"/>
</g>
<g id="clust6" class="cluster">
<title>cluster_AppModule_providers</title>
<polygon fill="none" stroke="black" points="16,-40.8 16,-92.8 146,-92.8 146,-40.8 16,-40.8"/>
</g>
<!-- AuthModule -->
<g id="node1" class="node">
<title>AuthModule</title>
<polygon fill="#8dd3c7" stroke="black" points="460.55,-84.8 457.55,-88.8 436.55,-88.8 433.55,-84.8 373.45,-84.8 373.45,-48.8 460.55,-48.8 460.55,-84.8"/>
<text text-anchor="middle" x="417" y="-62.6" font-family="Times,serif" font-size="14.00">AuthModule</text>
</g>
<!-- AppModule -->
<g id="node4" class="node">
<title>AppModule</title>
<polygon fill="#8dd3c7" stroke="black" points="299.66,-149.8 296.66,-153.8 275.66,-153.8 272.66,-149.8 216.34,-149.8 216.34,-113.8 299.66,-113.8 299.66,-149.8"/>
<text text-anchor="middle" x="258" y="-127.6" font-family="Times,serif" font-size="14.00">AppModule</text>
</g>
<!-- AuthModule&#45;&gt;AppModule -->
<g id="edge1" class="edge">
<title>AuthModule&#45;&gt;AppModule</title>
<path fill="none" stroke="black" d="M417,-84.91C417,-104.14 417,-131.8 417,-131.8 417,-131.8 309.78,-131.8 309.78,-131.8"/>
<polygon fill="black" stroke="black" points="309.78,-128.3 299.78,-131.8 309.78,-135.3 309.78,-128.3"/>
</g>
<!-- TodoModule -->
<g id="node2" class="node">
<title>TodoModule</title>
<polygon fill="#8dd3c7" stroke="black" points="355.6,-84.8 352.6,-88.8 331.6,-88.8 328.6,-84.8 266.4,-84.8 266.4,-48.8 355.6,-48.8 355.6,-84.8"/>
<text text-anchor="middle" x="311" y="-62.6" font-family="Times,serif" font-size="14.00">TodoModule</text>
</g>
<!-- TodoModule&#45;&gt;AppModule -->
<g id="edge2" class="edge">
<title>TodoModule&#45;&gt;AppModule</title>
<path fill="none" stroke="black" d="M283.14,-84.91C283.14,-84.91 283.14,-103.79 283.14,-103.79"/>
<polygon fill="black" stroke="black" points="279.64,-103.79 283.14,-113.79 286.64,-103.79 279.64,-103.79"/>
</g>
<!-- UserModule -->
<g id="node3" class="node">
<title>UserModule</title>
<polygon fill="#8dd3c7" stroke="black" points="247.99,-84.8 244.99,-88.8 223.99,-88.8 220.99,-84.8 162.01,-84.8 162.01,-48.8 247.99,-48.8 247.99,-84.8"/>
<text text-anchor="middle" x="205" y="-62.6" font-family="Times,serif" font-size="14.00">UserModule</text>
</g>
<!-- UserModule&#45;&gt;AppModule -->
<g id="edge3" class="edge">
<title>UserModule&#45;&gt;AppModule</title>
<path fill="none" stroke="black" d="M232.08,-84.91C232.08,-84.91 232.08,-103.79 232.08,-103.79"/>
<polygon fill="black" stroke="black" points="228.58,-103.79 232.08,-113.79 235.58,-103.79 228.58,-103.79"/>
</g>
<!-- AppService -->
<g id="node5" class="node">
<title>AppService</title>
<ellipse fill="#fdb462" stroke="black" cx="81" cy="-66.8" rx="56.75" ry="18"/>
<text text-anchor="middle" x="81" y="-62.6" font-family="Times,serif" font-size="14.00">AppService</text>
</g>
<!-- AppService&#45;&gt;AppModule -->
<g id="edge4" class="edge">
<title>AppService&#45;&gt;AppModule</title>
<path fill="none" stroke="black" d="M81,-84.91C81,-104.14 81,-131.8 81,-131.8 81,-131.8 206.05,-131.8 206.05,-131.8"/>
<polygon fill="black" stroke="black" points="206.05,-135.3 216.05,-131.8 206.05,-128.3 206.05,-135.3"/>
</g>
</g>
</svg>
