<?xml version="1.0" encoding="UTF-8" standalone="no"?>
<!DOCTYPE svg PUBLIC "-//W3C//DTD SVG 1.1//EN"
 "http://www.w3.org/Graphics/SVG/1.1/DTD/svg11.dtd">
<!-- Generated by graphviz version 3.0.0 (20220226.1711)
 -->
<!-- Title: dependencies Pages: 1 -->
<svg width="1060pt" height="326pt"
 viewBox="0.00 0.00 1060.00 325.80" xmlns="http://www.w3.org/2000/svg" xmlns:xlink="http://www.w3.org/1999/xlink">
<g id="graph0" class="graph" transform="scale(1 1) rotate(0) translate(4 321.8)">
<title>dependencies</title>
<polygon fill="white" stroke="transparent" points="-4,4 -4,-321.8 1056,-321.8 1056,4 -4,4"/>
<text text-anchor="middle" x="526" y="-8.2" font-family="sans-serif" font-size="14.00">dependencies</text>
<g id="clust1" class="cluster">
<title>cluster_AppModule</title>
<polygon fill="none" stroke="black" stroke-dasharray="1,5" points="412,-108.8 412,-309.8 776,-309.8 776,-108.8 412,-108.8"/>
</g>
<g id="clust3" class="cluster">
<title>cluster_AppModule_imports</title>
<polygon fill="none" stroke="black" points="558,-116.8 558,-244.8 768,-244.8 768,-116.8 558,-116.8"/>
</g>
<g id="clust6" class="cluster">
<title>cluster_AppModule_providers</title>
<polygon fill="none" stroke="black" points="420,-192.8 420,-244.8 550,-244.8 550,-192.8 420,-192.8"/>
</g>
<g id="clust7" class="cluster">
<title>cluster_AuthModule</title>
<polygon fill="none" stroke="black" stroke-dasharray="1,5" points="8,-108.8 8,-176.8 404,-176.8 404,-108.8 8,-108.8"/>
</g>
<g id="clust10" class="cluster">
<title>cluster_AuthModule_exports</title>
<polygon fill="none" stroke="black" points="290,-116.8 290,-168.8 396,-168.8 396,-116.8 290,-116.8"/>
</g>
<g id="clust12" class="cluster">
<title>cluster_AuthModule_providers</title>
<polygon fill="none" stroke="black" points="16,-116.8 16,-168.8 282,-168.8 282,-116.8 16,-116.8"/>
</g>
<g id="clust13" class="cluster">
<title>cluster_TodoModule</title>
<polygon fill="none" stroke="black" stroke-dasharray="1,5" points="535,-32.8 535,-100.8 687,-100.8 687,-32.8 535,-32.8"/>
</g>
<g id="clust18" class="cluster">
<title>cluster_TodoModule_providers</title>
<polygon fill="none" stroke="black" points="543,-40.8 543,-92.8 679,-92.8 679,-40.8 543,-40.8"/>
</g>
<g id="clust19" class="cluster">
<title>cluster_UserModule</title>
<polygon fill="none" stroke="black" stroke-dasharray="1,5" points="784,-184.8 784,-252.8 1044,-252.8 1044,-184.8 784,-184.8"/>
</g>
<g id="clust22" class="cluster">
<title>cluster_UserModule_exports</title>
<polygon fill="none" stroke="black" points="932,-192.8 932,-244.8 1036,-244.8 1036,-192.8 932,-192.8"/>
</g>
<g id="clust24" class="cluster">
<title>cluster_UserModule_providers</title>
<polygon fill="none" stroke="black" points="792,-192.8 792,-244.8 924,-244.8 924,-192.8 792,-192.8"/>
</g>
<!-- AuthModule -->
<g id="node1" class="node">
<title>AuthModule</title>
<polygon fill="#8dd3c7" stroke="black" points="653.55,-236.8 650.55,-240.8 629.55,-240.8 626.55,-236.8 566.45,-236.8 566.45,-200.8 653.55,-200.8 653.55,-236.8"/>
<text text-anchor="middle" x="610" y="-214.6" font-family="Times,serif" font-size="14.00">AuthModule</text>
</g>
<!-- AppModule -->
<g id="node4" class="node">
<title>AppModule</title>
<polygon fill="#8dd3c7" stroke="black" points="682.66,-301.8 679.66,-305.8 658.66,-305.8 655.66,-301.8 599.34,-301.8 599.34,-265.8 682.66,-265.8 682.66,-301.8"/>
<text text-anchor="middle" x="641" y="-279.6" font-family="Times,serif" font-size="14.00">AppModule</text>
</g>
<!-- AuthModule&#45;&gt;AppModule -->
<g id="edge1" class="edge">
<title>AuthModule&#45;&gt;AppModule</title>
<path fill="none" stroke="black" d="M626.47,-236.91C626.47,-236.91 626.47,-255.79 626.47,-255.79"/>
<polygon fill="black" stroke="black" points="622.97,-255.79 626.47,-265.79 629.97,-255.79 622.97,-255.79"/>
</g>
<!-- AuthService  -->
<g id="node6" class="node">
<title>AuthService </title>
<polygon fill="#fb8072" stroke="black" points="387.98,-160.8 298.02,-160.8 298.02,-124.8 387.98,-124.8 387.98,-160.8"/>
<text text-anchor="middle" x="343" y="-138.6" font-family="Times,serif" font-size="14.00">AuthService </text>
</g>
<!-- AuthModule&#45;&gt;AuthService  -->
<g id="edge6" class="edge">
<title>AuthModule&#45;&gt;AuthService </title>
<path fill="none" stroke="black" stroke-dasharray="5,2" d="M566.03,-218.8C561.45,-218.8 558.42,-218.8 558.42,-218.8 558.42,-218.8 558.42,-142.8 558.42,-142.8 558.42,-142.8 397.9,-142.8 397.9,-142.8"/>
<polygon fill="black" stroke="black" points="397.9,-139.3 387.9,-142.8 397.9,-146.3 397.9,-139.3"/>
</g>
<!-- TodoModule -->
<g id="node2" class="node">
<title>TodoModule</title>
<polygon fill="#8dd3c7" stroke="black" points="655.6,-160.8 652.6,-164.8 631.6,-164.8 628.6,-160.8 566.4,-160.8 566.4,-124.8 655.6,-124.8 655.6,-160.8"/>
<text text-anchor="middle" x="611" y="-138.6" font-family="Times,serif" font-size="14.00">TodoModule</text>
</g>
<!-- TodoModule&#45;&gt;AppModule -->
<g id="edge2" class="edge">
<title>TodoModule&#45;&gt;AppModule</title>
<path fill="none" stroke="black" d="M655.72,-142.8C660.39,-142.8 663.46,-142.8 663.46,-142.8 663.46,-142.8 663.46,-255.66 663.46,-255.66"/>
<polygon fill="black" stroke="black" points="659.96,-255.66 663.46,-265.66 666.96,-255.66 659.96,-255.66"/>
</g>
<!-- UserModule -->
<g id="node3" class="node">
<title>UserModule</title>
<polygon fill="#8dd3c7" stroke="black" points="759.99,-160.8 756.99,-164.8 735.99,-164.8 732.99,-160.8 674.01,-160.8 674.01,-124.8 759.99,-124.8 759.99,-160.8"/>
<text text-anchor="middle" x="717" y="-138.6" font-family="Times,serif" font-size="14.00">UserModule</text>
</g>
<!-- UserModule&#45;&gt;AuthModule -->
<g id="edge5" class="edge">
<title>UserModule&#45;&gt;AuthModule</title>
<path fill="none" stroke="black" d="M676.95,-161C676.95,-185.16 676.95,-224.8 676.95,-224.8 676.95,-224.8 663.91,-224.8 663.91,-224.8"/>
<polygon fill="black" stroke="black" points="663.91,-221.3 653.91,-224.8 663.91,-228.3 663.91,-221.3"/>
</g>
<!-- UserModule&#45;&gt;AppModule -->
<g id="edge3" class="edge">
<title>UserModule&#45;&gt;AppModule</title>
<path fill="none" stroke="black" d="M679.89,-160.94C679.89,-160.94 679.89,-255.73 679.89,-255.73"/>
<polygon fill="black" stroke="black" points="676.39,-255.72 679.89,-265.73 683.39,-255.73 676.39,-255.72"/>
</g>
<!-- UserService  -->
<g id="node10" class="node">
<title>UserService </title>
<polygon fill="#fb8072" stroke="black" points="1027.91,-236.8 940.09,-236.8 940.09,-200.8 1027.91,-200.8 1027.91,-236.8"/>
<text text-anchor="middle" x="984" y="-214.6" font-family="Times,serif" font-size="14.00">UserService </text>
</g>
<!-- UserModule&#45;&gt;UserService  -->
<g id="edge10" class="edge">
<title>UserModule&#45;&gt;UserService </title>
<path fill="none" stroke="black" stroke-dasharray="5,2" d="M760.19,-142.8C835.76,-142.8 984,-142.8 984,-142.8 984,-142.8 984,-190.79 984,-190.79"/>
<polygon fill="black" stroke="black" points="980.5,-190.79 984,-200.79 987.5,-190.79 980.5,-190.79"/>
</g>
<!-- AppService -->
<g id="node5" class="node">
<title>AppService</title>
<ellipse fill="#fdb462" stroke="black" cx="485" cy="-218.8" rx="56.75" ry="18"/>
<text text-anchor="middle" x="485" y="-214.6" font-family="Times,serif" font-size="14.00">AppService</text>
</g>
<!-- AppService&#45;&gt;AppModule -->
<g id="edge4" class="edge">
<title>AppService&#45;&gt;AppModule</title>
<path fill="none" stroke="black" d="M485,-236.91C485,-256.14 485,-283.8 485,-283.8 485,-283.8 589.19,-283.8 589.19,-283.8"/>
<polygon fill="black" stroke="black" points="589.19,-287.3 599.19,-283.8 589.19,-280.3 589.19,-287.3"/>
</g>
<!-- AuthService -->
<g id="node7" class="node">
<title>AuthService</title>
<ellipse fill="#fdb462" stroke="black" cx="215" cy="-142.8" rx="59.11" ry="18"/>
<text text-anchor="middle" x="215" y="-138.6" font-family="Times,serif" font-size="14.00">AuthService</text>
</g>
<!-- AuthService&#45;&gt;AuthModule -->
<g id="edge7" class="edge">
<title>AuthService&#45;&gt;AuthModule</title>
<path fill="none" stroke="black" d="M215,-161.04C215,-168.23 215,-174.8 215,-174.8 215,-174.8 624.67,-174.8 624.67,-174.8 624.67,-174.8 624.67,-190.65 624.67,-190.65"/>
<polygon fill="black" stroke="black" points="621.17,-190.65 624.67,-200.65 628.17,-190.65 621.17,-190.65"/>
</g>
<!-- JwtStrategy -->
<g id="node8" class="node">
<title>JwtStrategy</title>
<ellipse fill="#fdb462" stroke="black" cx="81" cy="-142.8" rx="56.77" ry="18"/>
<text text-anchor="middle" x="81" y="-138.6" font-family="Times,serif" font-size="14.00">JwtStrategy</text>
</g>
<!-- JwtStrategy&#45;&gt;AuthModule -->
<g id="edge8" class="edge">
<title>JwtStrategy&#45;&gt;AuthModule</title>
<path fill="none" stroke="black" d="M81,-160.84C81,-173.36 81,-187.8 81,-187.8 81,-187.8 595.56,-187.8 595.56,-187.8 595.56,-187.8 595.56,-190.77 595.56,-190.77"/>
<polygon fill="black" stroke="black" points="592.06,-190.77 595.56,-200.77 599.06,-190.77 592.06,-190.77"/>
</g>
<!-- TodoService -->
<g id="node9" class="node">
<title>TodoService</title>
<ellipse fill="#fdb462" stroke="black" cx="611" cy="-66.8" rx="60.26" ry="18"/>
<text text-anchor="middle" x="611" y="-62.6" font-family="Times,serif" font-size="14.00">TodoService</text>
</g>
<!-- TodoService&#45;&gt;TodoModule -->
<g id="edge9" class="edge">
<title>TodoService&#45;&gt;TodoModule</title>
<path fill="none" stroke="black" d="M611,-84.81C611,-84.81 611,-114.65 611,-114.65"/>
<polygon fill="black" stroke="black" points="607.5,-114.65 611,-124.65 614.5,-114.65 607.5,-114.65"/>
</g>
<!-- UserService -->
<g id="node11" class="node">
<title>UserService</title>
<ellipse fill="#fdb462" stroke="black" cx="858" cy="-218.8" rx="58.46" ry="18"/>
<text text-anchor="middle" x="858" y="-214.6" font-family="Times,serif" font-size="14.00">UserService</text>
</g>
<!-- UserService&#45;&gt;UserModule -->
<g id="edge11" class="edge">
<title>UserService&#45;&gt;UserModule</title>
<path fill="none" stroke="black" d="M802.84,-212.8C764.93,-212.8 721.41,-212.8 721.41,-212.8 721.41,-212.8 721.41,-170.83 721.41,-170.83"/>
<polygon fill="black" stroke="black" points="724.91,-170.83 721.41,-160.83 717.91,-170.83 724.91,-170.83"/>
</g>
</g>
</svg>
